<svg width="256" height="256" viewBox="0 0 256 256" fill="none" xmlns="http://www.w3.org/2000/svg">
<rect width="256" height="256" fill="#1E1E1E"/>
<rect width="256" height="256" fill="black"/>
<g filter="url(#filter0_d_0_1)">
<path d="M70.25 217V54H129C140.5 54 151 55.5833 160.5 58.75C170 61.75 177.583 66.9167 183.25 74.25C188.917 81.5833 191.75 91.75 191.75 104.75C191.75 116.75 189.083 126.667 183.75 134.5C178.583 142.167 171.583 147.917 162.75 151.75L199.75 217H158.5L127.25 158.25H107V217H70.25ZM107 129H126C135.667 129 143 127 148 123C153.167 118.833 155.75 112.75 155.75 104.75C155.75 96.75 153.167 91.1667 148 88C143 84.8333 135.667 83.25 126 83.25H107V129Z" fill="white"/>
<path d="M70.25 217H69.25V218H70.25V217ZM70.25 54V53H69.25V54H70.25ZM160.5 58.75L160.184 59.6987L160.191 59.7012L160.199 59.7036L160.5 58.75ZM183.25 74.25L184.041 73.6385L184.041 73.6385L183.25 74.25ZM183.75 134.5L182.923 133.937L182.921 133.941L183.75 134.5ZM162.75 151.75L162.352 150.833L161.331 151.276L161.88 152.243L162.75 151.75ZM199.75 217V218H201.467L200.62 216.507L199.75 217ZM158.5 217L157.617 217.47L157.899 218H158.5V217ZM127.25 158.25L128.133 157.78L127.851 157.25H127.25V158.25ZM107 158.25V157.25H106V158.25H107ZM107 217V218H108V217H107ZM107 129H106V130H107V129ZM148 123L148.625 123.781L148.628 123.778L148 123ZM148 88L147.465 88.8448L147.471 88.8487L147.477 88.8526L148 88ZM107 83.25V82.25H106V83.25H107ZM71.25 217V54H69.25V217H71.25ZM70.25 55H129V53H70.25V55ZM129 55C140.408 55 150.8 56.5706 160.184 59.6987L160.816 57.8013C151.2 54.596 140.592 53 129 53V55ZM160.199 59.7036C169.52 62.647 176.926 67.7017 182.459 74.8614L184.041 73.6385C178.24 66.1316 170.48 60.853 160.801 57.7964L160.199 59.7036ZM182.459 74.8614C187.945 81.9613 190.75 91.8841 190.75 104.75H192.75C192.75 91.6159 189.888 81.2053 184.041 73.6385L182.459 74.8614ZM190.75 104.75C190.75 116.603 188.117 126.309 182.923 133.937L184.577 135.063C190.05 127.024 192.75 116.897 192.75 104.75H190.75ZM182.921 133.941C177.865 141.443 171.018 147.072 162.352 150.833L163.148 152.667C172.149 148.761 179.301 142.89 184.579 135.059L182.921 133.941ZM161.88 152.243L198.88 217.493L200.62 216.507L163.62 151.257L161.88 152.243ZM199.75 216H158.5V218H199.75V216ZM159.383 216.53L128.133 157.78L126.367 158.72L157.617 217.47L159.383 216.53ZM127.25 157.25H107V159.25H127.25V157.25ZM106 158.25V217H108V158.25H106ZM107 216H70.25V218H107V216ZM107 130H126V128H107V130ZM126 130C135.783 130 143.377 127.979 148.625 123.781L147.375 122.219C142.623 126.021 135.55 128 126 128V130ZM148.628 123.778C154.079 119.383 156.75 112.984 156.75 104.75H154.75C154.75 112.516 152.255 118.284 147.372 122.222L148.628 123.778ZM156.75 104.75C156.75 96.5279 154.079 90.5531 148.523 87.1474L147.477 88.8526C152.254 91.7802 154.75 96.9721 154.75 104.75H156.75ZM148.535 87.1552C143.303 83.8417 135.748 82.25 126 82.25V84.25C135.585 84.25 142.697 85.825 147.465 88.8448L148.535 87.1552ZM126 82.25H107V84.25H126V82.25ZM106 83.25V129H108V83.25H106Z" fill="black"/>
</g>
<defs>
<filter id="filter0_d_0_1" x="66.25" y="54" width="137.5" height="171" filterUnits="userSpaceOnUse" color-interpolation-filters="sRGB">
<feFlood flood-opacity="0" result="BackgroundImageFix"/>
<feColorMatrix in="SourceAlpha" type="matrix" values="0 0 0 0 0 0 0 0 0 0 0 0 0 0 0 0 0 0 127 0" result="hardAlpha"/>
<feOffset dy="4"/>
<feGaussianBlur stdDeviation="2"/>
<feComposite in2="hardAlpha" operator="out"/>
<feColorMatrix type="matrix" values="0 0 0 0 0 0 0 0 0 0 0 0 0 0 0 0 0 0 0.25 0"/>
<feBlend mode="normal" in2="BackgroundImageFix" result="effect1_dropShadow_0_1"/>
<feBlend mode="normal" in="SourceGraphic" in2="effect1_dropShadow_0_1" result="shape"/>
</filter>
</defs>
</svg>
